[Header]
FileType HTR
DataType HTRS
FileVersion 1
NumSegments 64
NumFrames 3
DataFrameRate 24
EulerRotationOrder ZYX
CalibrationUnits mm
RotationUnits Degrees
GlobalAxisofGravity Y
BoneLengthAxis Y
ScaleFactor 1.0
[SegmentNames&Hierarchy]
Hips	GLOBAL
Spine	Hips
Spine1	Spine
Spine2	Spine1
Neck	Spine2
Head	Neck
LeftEye	Head
RightEye	Head
LeftShoulder	Spine2
LeftArm	LeftShoulder
LeftForeArm	LeftArm
LeftHand	LeftForeArm
LeftHandThumb1	LeftHand
LeftHandThumb2	LeftHandThumb1
LeftHandThumb3	LeftHandThumb2
LeftHandThumb4	LeftHandThumb3
LeftHandIndex1	LeftHand
LeftHandIndex2	LeftHandIndex1
LeftHandIndex3	LeftHandIndex2
LeftHandIndex4	LeftHandIndex3
LeftHandMiddle1	LeftHand
LeftHandMiddle2	LeftHandMiddle1
LeftHandMiddle3	LeftHandMiddle2
LeftHandMiddle4	LeftHandMiddle3
LeftHandRing1	LeftHand
LeftHandRing2	LeftHandRing1
LeftHandRing3	LeftHandRing2
LeftHandRing4	LeftHandRing3
LeftHandPinky1	LeftHand
LeftHandPinky2	LeftHandPinky1
LeftHandPinky3	LeftHandPinky2
LeftHandPinky4	LeftHandPinky3
RightShoulder	Spine2
RightArm	RightShoulder
RightForeArm	RightArm
RightHand	RightForeArm
RightHandPinky1	RightHand
RightHandPinky2	RightHandPinky1
RightHandPinky3	RightHandPinky2
RightHandPinky4	RightHandPinky3
RightHandRing1	RightHand
RightHandRing2	RightHandRing1
RightHandRing3	RightHandRing2
RightHandRing4	RightHandRing3
RightHandMiddle1	RightHand
RightHandMiddle2	RightHandMiddle1
RightHandMiddle3	RightHandMiddle2
RightHandMiddle4	RightHandMiddle3
RightHandIndex1	RightHand
RightHandIndex2	RightHandIndex1
RightHandIndex3	RightHandIndex2
RightHandIndex4	RightHandIndex3
RightHandThumb1	RightHand
RightHandThumb2	RightHandThumb1
RightHandThumb3	RightHandThumb2
RightHandThumb4	RightHandThumb3
LeftUpLeg	Hips
LeftLeg	LeftUpLeg
LeftFoot	LeftLeg
LeftToeBase	LeftFoot
RightUpLeg	Hips
RightLeg	RightUpLeg
RightFoot	RightLeg
RightToeBase	RightFoot
[BasePosition]
Hips	0	0	0	0	0	0	1
Spine	0	0	0	0	0	0	1
Spine1	0	0	0	0	0	0	1
Spine2	0	0	0	0	0	0	1
Neck	0	0	0	0	0	0	1
Head	0	0	0	0	0	0	1
LeftEye	0	0	0	0	0	0	1
RightEye	0	0	0	0	0	0	1
LeftShoulder	0	0	0	0	0	0	1
LeftArm	0	0	0	0	0	0	1
LeftForeArm	0	0	0	0	0	0	1
LeftHand	0	0	0	0	0	0	1
LeftHandThumb1	0	0	0	0	0	0	1
LeftHandThumb2	0	0	0	0	0	0	1
LeftHandThumb3	0	0	0	0	0	0	1
LeftHandThumb4	0	0	0	0	0	0	1
LeftHandIndex1	0	0	0	0	0	0	1
LeftHandIndex2	0	0	0	0	0	0	1
LeftHandIndex3	0	0	0	0	0	0	1
LeftHandIndex4	0	0	0	0	0	0	1
LeftHandMiddle1	0	0	0	0	0	0	1
LeftHandMiddle2	0	0	0	0	0	0	1
LeftHandMiddle3	0	0	0	0	0	0	1
LeftHandMiddle4	0	0	0	0	0	0	1
LeftHandRing1	0	0	0	0	0	0	1
LeftHandRing2	0	0	0	0	0	0	1
LeftHandRing3	0	0	0	0	0	0	1
LeftHandRing4	0	0	0	0	0	0	1
LeftHandPinky1	0	0	0	0	0	0	1
LeftHandPinky2	0	0	0	0	0	0	1
LeftHandPinky3	0	0	0	0	0	0	1
LeftHandPinky4	0	0	0	0	0	0	1
RightShoulder	0	0	0	0	0	0	1
RightArm	0	0	0	0	0	0	1
RightForeArm	0	0	0	0	0	0	1
RightHand	0	0	0	0	0	0	1
RightHandPinky1	0	0	0	0	0	0	1
RightHandPinky2	0	0	0	0	0	0	1
RightHandPinky3	0	0	0	0	0	0	1
RightHandPinky4	0	0	0	0	0	0	1
RightHandRing1	0	0	0	0	0	0	1
RightHandRing2	0	0	0	0	0	0	1
RightHandRing3	0	0	0	0	0	0	1
RightHandRing4	0	0	0	0	0	0	1
RightHandMiddle1	0	0	0	0	0	0	1
RightHandMiddle2	0	0	0	0	0	0	1
RightHandMiddle3	0	0	0	0	0	0	1
RightHandMiddle4	0	0	0	0	0	0	1
RightHandIndex1	0	0	0	0	0	0	1
RightHandIndex2	0	0	0	0	0	0	1
RightHandIndex3	0	0	0	0	0	0	1
RightHandIndex4	0	0	0	0	0	0	1
RightHandThumb1	0	0	0	0	0	0	1
RightHandThumb2	0	0	0	0	0	0	1
RightHandThumb3	0	0	0	0	0	0	1
RightHandThumb4	0	0	0	0	0	0	1
LeftUpLeg	0	0	0	0	0	0	1
LeftLeg	0	0	0	0	0	0	1
LeftFoot	0	0	0	0	0	0	1
LeftToeBase	0	0	0	0	0	0	1
RightUpLeg	0	0	0	0	0	0	1
RightLeg	0	0	0	0	0	0	1
RightFoot	0	0	0	0	0	0	1
RightToeBase	0	0	0	0	0	0	1
[Hips]
7	37.419487	1012.038696	-12.36277771	8.614200592	-16.8957119	-2.962988615	1.0
8	47.30845642	987.5494385	-26.51931381	13.2139864	-20.00736427	-3.460980654	1.0
9	56.38835144	951.1862793	-42.9278717	18.38510704	-22.42205429	-4.772842884	1.0
[Spine]
7	0	101.8159943	1.315000057	4.938725471	0.6994127035	1.971397996	1.0
8	0	101.8159943	1.315000057	5.828327179	-0.135595724	1.084033251	1.0
9	0	101.8159943	1.315000057	7.188727379	-1.518351674	0.4918266833	1.0
[Spine1]
7	0	100.8349991	-10.00800037	1.891107798	-0.1994266659	1.441899538	1.0
8	0	100.8349991	-10.00800037	2.268728971	-0.5440105796	1.217410922	1.0
9	0	100.8349991	-10.00800037	2.791750669	-1.038428426	1.042643905	1.0
[Spine2]
7	0	91	-13.73399925	1.865426302	-0.1795695573	1.456680298	1.0
8	0	91	-13.73399925	2.243887663	-0.5251330137	1.236179352	1.0
9	0	91	-13.73399925	2.766051769	-1.024127841	1.063546896	1.0
[Neck]
7	0	166.7169952	-25.16200066	1.997503519	1.387050629	1.819494128	1.0
8	0	166.7169952	-25.16200066	-0.6010822654	2.15295887	2.373821497	1.0
9	0	166.7169952	-25.16200066	-3.257817745	3.063450813	2.833730459	1.0
[Head]
7	0	96.17900085	16.84999847	-14.24447536	9.090488434	-3.550959587	1.0
8	0	96.17900085	16.84999847	-17.04811668	12.07528687	-4.190787315	1.0
9	0	96.17900085	16.84999847	-21.63640404	15.13260651	-5.778906345	1.0
[LeftEye]
7	30.6760006	64.09500122	92.83599854	0	0	0	1.0
8	30.6760006	64.09500122	92.83599854	0	0	0	1.0
9	30.6760006	64.09500122	92.83599854	0	0	0	1.0
[RightEye]
7	-30.6760006	64.09500122	92.83499908	0	0	0	1.0
8	-30.6760006	64.09500122	92.83499908	0	0	0	1.0
9	-30.6760006	64.09500122	92.83499908	0	0	0	1.0
[LeftShoulder]
7	45.70400238	109.4599991	-26.28000069	4.771643162	-16.07088661	-8.518228531	1.0
8	45.70400238	109.4599991	-26.28000069	4.750785828	-17.03384209	-7.783200741	1.0
9	45.70400238	109.4599991	-26.28000069	4.847652435	-18.66898537	-7.760391712	1.0
[LeftArm]
7	105.923996	-5.24600029	-22.32099915	21.90036201	-10.14575958	-63.53944397	1.0
8	105.923996	-5.24600029	-22.32099915	20.02655029	-12.45279217	-59.53488541	1.0
9	105.923996	-5.24600029	-22.32099915	17.10563087	-16.80745506	-53.31429291	1.0
[LeftForeArm]
7	278.414978	-0.0009999999311	0	-1.85935769e-05	-8.958301544	-0.0001963543327	1.0
8	278.414978	-0.0009999999311	0	1.248367084e-06	-11.30433941	-0.0002145267936	1.0
9	278.414978	-0.0009999999311	0	-3.318845074e-07	-12.6588583	-0.0002168414503	1.0
[LeftHand]
7	283.2879944	0	0	-42.66862106	6.016819	1.048479676	1.0
8	283.2879944	0	0	-46.16311646	13.47644043	3.785318613	1.0
9	283.2879944	0	0	-40.98436737	20.20947266	10.38732815	1.0
[LeftHandThumb1]
7	24.6609993	-15.75	26.8239994	-0.4889908433	2.201385975	4.818533897	1.0
8	24.6609993	-15.75	26.8239994	-0.4889876246	2.201400757	4.818534851	1.0
9	24.6609993	-15.75	26.8239994	-0.4889854789	2.201416016	4.818555355	1.0
[LeftHandThumb2]
7	32.29800034	-18.64699936	18.64699936	28.25964737	34.53024673	30.3421917	1.0
8	32.29800034	-18.64699936	18.64699936	29.18073463	35.57284927	31.10407639	1.0
9	32.29800034	-18.64699936	18.64699936	27.75970078	31.78617287	29.70258331	1.0
[LeftHandThumb3]
7	26.52600098	-15.31499958	15.31499958	-15.3904171	-14.17256832	23.70150948	1.0
8	26.52600098	-15.31499958	15.31499958	-16.87926483	-20.98075104	29.16931534	1.0
9	26.52600098	-15.31499958	15.31499958	-15.05157566	-14.71626568	21.39816856	1.0
[LeftHandThumb4]
7	19.54599953	-11.28499985	11.28499985	0	0	0	1.0
8	19.54599953	-11.28499985	11.28499985	0	0	0	1.0
9	19.54599953	-11.28499985	11.28499985	0	0	0	1.0
[LeftHandIndex1]
7	91.09299469	-5.170999527	22.60099792	0.8265035748	3.871231079	-21.76092529	1.0
8	91.09299469	-5.170999527	22.60099792	1.085296988	5.115226746	-24.46780396	1.0
9	91.09299469	-5.170999527	22.60099792	0.7588034272	3.557162762	-21.0356369	1.0
[LeftHandIndex2]
7	36.76399994	0	0	-0.2658586204	1.74248457	-17.34877014	1.0
8	36.76399994	0	0	-0.2647760808	1.738999248	-17.31303406	1.0
9	36.76399994	0	0	-0.2804407477	1.788454413	-17.82202721	1.0
[LeftHandIndex3]
7	28.83100128	0	0	-0.05703304335	0.8145341873	-8.010622978	1.0
8	28.83100128	0	0	-0.05652634799	0.8109275103	-7.974839211	1.0
9	28.83100128	0	0	-0.06394511461	0.8622558117	-8.48327446	1.0
[LeftHandIndex4]
7	23.92700005	0	0	0	0	0	1.0
8	23.92700005	0	0	0	0	0	1.0
9	23.92700005	0	0	0	0	0	1.0
[LeftHandMiddle1]
7	95.33399963	0	0	-1.524629593	5.379362583	-25.49184036	1.0
8	95.33399963	0	0	-1.656578541	5.272144318	-27.09481621	1.0
9	95.33399963	0	0	-1.501287341	3.682254314	-25.20776367	1.0
[LeftHandMiddle2]
7	36.98199844	0	0	-0.2618639767	1.729645014	-17.21694183	1.0
8	36.98199844	0	0	-0.2670234442	1.746205568	-17.38703918	1.0
9	36.98199844	0	0	-0.2788553536	1.783532262	-17.77124214	1.0
[LeftHandMiddle3]
7	29.50900078	0	0	-0.2933267355	1.828044415	-18.23048973	1.0
8	29.50900078	0	0	-0.2987695634	1.844483137	-18.4003849	1.0
9	29.50900078	0	0	-0.3111204207	1.881174207	-18.78026009	1.0
[LeftHandMiddle4]
7	28.3390007	0	0	0	0	0	1.0
8	28.3390007	0	0	0	0	0	1.0
9	28.3390007	0	0	0	0	0	1.0
[LeftHandRing1]
7	91.04499817	-0.4390000105	-18.65100098	-1.683033228	7.350595951	-27.45392418	1.0
8	91.04499817	-0.4390000105	-18.65100098	-1.462513208	7.488996983	-24.80094719	1.0
9	91.04499817	-0.4390000105	-18.65100098	-1.252578855	5.613942623	-22.06068611	1.0
[LeftHandRing2]
7	31.54000092	0	0	-0.4105279148	2.151294708	-21.60510063	1.0
8	31.54000092	0	0	-0.3863913119	2.089360714	-20.95269203	1.0
9	31.54000092	0	0	-0.3756749332	2.061181068	-20.65673637	1.0
[LeftHandRing3]
7	29.37700081	0	0	-0.3040663302	1.860319495	-18.56414795	1.0
8	29.37700081	0	0	-0.283302933	1.797336102	-17.91354752	1.0
9	29.37700081	0	0	-0.2738575935	1.76785183	-17.60979843	1.0
[LeftHandRing4]
7	26.47500038	0	0	0	0	0	1.0
8	26.47500038	0	0	0	0	0	1.0
9	26.47500038	0	0	0	0	0	1.0
[LeftHandPinky1]
7	80.77799988	-4.887000084	-38.06099701	-2.000849485	7.619580746	-30.93244743	1.0
8	80.77799988	-4.887000084	-38.06099701	-2.069350243	9.883925438	-32.51512146	1.0
9	80.77799988	-4.887000084	-38.06099701	-2.195620537	7.85769701	-32.8116951	1.0
[LeftHandPinky2]
7	36	0	0	-0.2701997459	1.756297231	-17.49085426	1.0
8	36	0	0	-0.2325543165	1.632101059	-16.21774864	1.0
9	36	0	0	-0.213913098	1.566625834	-15.5499754	1.0
[LeftHandPinky3]
7	21.14200211	0	0	-0.2433546036	1.668766379	-16.59273911	1.0
8	21.14200211	0	0	-0.2078456879	1.544642568	-15.32612991	1.0
9	21.14200211	0	0	-0.1900667399	1.47825253	-14.65205669	1.0
[LeftHandPinky4]
7	19.75699997	0	0	0	0	0	1.0
8	19.75699997	0	0	0	0	0	1.0
9	19.75699997	0	0	0	0	0	1.0
[RightShoulder]
7	-45.70000076	109.4620056	-26.28000069	4.803184509	14.39050388	14.55469894	1.0
8	-45.70000076	109.4620056	-26.28000069	4.575590134	14.10980892	13.36806583	1.0
9	-45.70000076	109.4620056	-26.28000069	4.315950871	13.90723896	11.90616322	1.0
[RightArm]
7	-105.9280014	-5.248000145	-22.32099915	22.84840584	2.161693573	51.37705994	1.0
8	-105.9280014	-5.248000145	-22.32099915	21.96406174	3.029603958	51.83197403	1.0
9	-105.9280014	-5.248000145	-22.32099915	19.6749115	3.76292491	53.92131805	1.0
[RightForeArm]
7	-278.414978	0	0	-2.445900236e-06	28.82727623	1.131947465e-05	1.0
8	-278.414978	0	0	-2.649842827e-06	33.13621521	-9.8863311e-06	1.0
9	-278.414978	0	0	8.570783393e-06	36.62138367	1.42148283e-05	1.0
[RightHand]
7	-283.2879944	0	0.0009999999311	-19.54211235	-3.283480883	-20.26190186	1.0
8	-283.2879944	0	0.0009999999311	-18.80822754	-4.806444645	-27.00525284	1.0
9	-283.2879944	0	0.0009999999311	-18.48031616	-5.22887373	-32.00022507	1.0
[RightHandPinky1]
7	-80.76699829	-4.885000229	-38.06000137	-2.623397112	-1.800614834	32.32045746	1.0
8	-80.76699829	-4.885000229	-38.06000137	-2.955350399	-0.9830447435	34.10112	1.0
9	-80.76699829	-4.885000229	-38.06000137	-2.766098022	-1.539135933	33.35460281	1.0
[RightHandPinky2]
7	-36	0	0.0009999999311	-0.2175452858	-1.404020786	17.63410187	1.0
8	-36	0	0.0009999999311	-0.2180242091	-1.405535221	17.65370369	1.0
9	-36	0	0.0009999999311	-0.2403096855	-1.47377646	18.54062653	1.0
[RightHandPinky3]
7	-21.14200211	0	0	-0.1956213713	-1.333020449	16.69649696	1.0
8	-21.14200211	0	0	-0.1957531273	-1.333458304	16.7021389	1.0
9	-21.14200211	0	0	-0.2171450853	-1.402755022	17.59803963	1.0
[RightHandPinky4]
7	-19.75699997	0	0	0	0	0	1.0
8	-19.75699997	0	0	0	0	0	1.0
9	-19.75699997	0	0	0	0	0	1.0
[RightHandRing1]
7	-91.03599548	-0.4390000105	-18.65100098	-1.51734364	-0.06208864227	27.38592911	1.0
8	-91.03599548	-0.4390000105	-18.65100098	-1.599330425	0.6576392651	28.54413223	1.0
9	-91.03599548	-0.4390000105	-18.65100098	-1.546661854	-0.02314822562	27.78947258	1.0
[RightHandRing2]
7	-31.54000092	0	0	-0.3629687428	-1.798810482	22.81457329	1.0
8	-31.54000092	0	0	-0.3831885457	-1.846119404	23.4503212	1.0
9	-31.54000092	0	0	-0.4120480418	-1.911239266	24.33064461	1.0
[RightHandRing3]
7	-29.37700081	0	0	-0.2738305032	-1.570255756	19.78283501	1.0
8	-29.37700081	0	0	-0.2917576134	-1.619211674	20.42701912	1.0
9	-29.37700081	0	0	-0.3169025779	-1.685167074	21.29921341	1.0
[RightHandRing4]
7	-26.47500038	0	0	0	0	0	1.0
8	-26.47500038	0	0	0	0	0	1.0
9	-26.47500038	0	0	0	0	0	1.0
[RightHandMiddle1]
7	-95.32500458	0	0	-1.091235995	-1.88345778	21.19628906	1.0
8	-95.32500458	0	0	-1.162976146	-1.490192413	22.27876472	1.0
9	-95.32500458	0	0	-1.046656013	-1.910520434	20.52170372	1.0
[RightHandMiddle2]
7	-36.98199844	0	0	-0.2848605216	-1.600583076	20.18164253	1.0
8	-36.98199844	0	0	-0.3398778439	-1.742932796	22.06737137	1.0
9	-36.98199844	0	0	-0.4255703688	-1.940848947	24.73292732	1.0
[RightHandMiddle3]
7	-29.50900078	0	0	-0.3139064312	-1.679484367	21.19701576	1.0
8	-29.50900078	0	0	-0.3715893328	-1.821174383	23.08761597	1.0
9	-29.50900078	0	0	-0.4605992734	-2.017129421	25.74782753	1.0
[RightHandMiddle4]
7	-28.3390007	0	0.0009999999311	0	0	0	1.0
8	-28.3390007	0	0.0009999999311	0	0	0	1.0
9	-28.3390007	0	0.0009999999311	0	0	0	1.0
[RightHandIndex1]
7	-91.08300018	-5.167999744	22.60099792	-0.8432062268	2.82763052	17.49142456	1.0
8	-91.08300018	-5.167999744	22.60099792	-0.9039029479	3.74825263	18.77049446	1.0
9	-91.08300018	-5.167999744	22.60099792	-0.8555926681	3.704901934	18.0588932	1.0
[RightHandIndex2]
7	-36.76399994	0	0	-0.2158845514	-1.3987782	17.54656219	1.0
8	-36.76399994	0	0	-0.2258855999	-1.430018425	17.95170975	1.0
9	-36.76399994	0	0	-0.2469030023	-1.493309736	18.77568626	1.0
[RightHandIndex3]
7	-28.83100128	0	0	-0.04836191982	-0.6681848764	8.278898239	1.0
8	-28.83100128	0	0	-0.05409531668	-0.7064505219	8.756755829	1.0
9	-28.83100128	0	0	-0.06463319808	-0.7717784643	9.573894501	1.0
[RightHandIndex4]
7	-23.92700005	0	0	0	0	0	1.0
8	-23.92700005	0	0	0	0	0	1.0
9	-23.92700005	0	0	0	0	0	1.0
[RightHandThumb1]
7	-24.64799881	-15.72700024	26.82600021	-1.658447266	-0.2891630232	-4.221339703	1.0
8	-24.64799881	-15.72700024	26.82600021	-1.658451438	-0.2891488373	-4.221327782	1.0
9	-24.64799881	-15.72700024	26.82600021	-1.658476949	-0.2890686691	-4.221318245	1.0
[RightHandThumb2]
7	-32.29800034	-18.64699936	18.64699936	19.1391983	-17.13741112	-20.79095459	1.0
8	-32.29800034	-18.64699936	18.64699936	18.43947411	-15.02198792	-20.97352219	1.0
9	-32.29800034	-18.64699936	18.64699936	18.3080883	-14.35168076	-21.57320213	1.0
[RightHandThumb3]
7	-26.52600098	-15.31399918	15.31399918	-14.65707111	-6.403635502	-11.92489719	1.0
8	-26.52600098	-15.31399918	15.31399918	-14.79010487	-6.361800194	-13.37419891	1.0
9	-26.52600098	-15.31399918	15.31399918	-15.09650517	-5.971407413	-15.17785072	1.0
[RightHandThumb4]
7	-19.54599953	-11.28499985	11.28499985	0	0	0	1.0
8	-19.54599953	-11.28499985	11.28499985	0	0	0	1.0
9	-19.54599953	-11.28499985	11.28499985	0	0	0	1.0
[LeftUpLeg]
7	82.07800293	-67.51699829	-15.99599934	-26.76379967	19.97607231	4.404079437	1.0
8	82.07800293	-67.51699829	-15.99599934	-37.0040741	21.8984642	3.360871553	1.0
9	82.07800293	-67.51699829	-15.99599934	-49.00986099	24.5549221	2.266479969	1.0
[LeftLeg]
7	0	-443.7049866	2.845999956	25.00537109	9.187018394	3.290199518	1.0
8	0	-443.7049866	2.845999956	34.88253784	9.73190403	3.661743879	1.0
9	0	-443.7049866	2.845999956	46.39790344	9.787779808	4.587779999	1.0
[LeftFoot]
7	0	-444.2789917	-29.8219986	-3.935792208	1.53712666	-3.935388327	1.0
8	0	-444.2789917	-29.8219986	-7.880308151	2.347088099	-3.665669441	1.0
9	0	-444.2789917	-29.8219986	-12.13439083	2.081845999	-3.533809662	1.0
[LeftToeBase]
7	0	-87.28699493	107.1060028	-4.928523064	1.64359335e-06	4.913464977e-07	1.0
8	0	-87.28699493	107.1060028	-4.928521633	-1.650795639e-06	-2.573605968e-07	1.0
9	0	-87.28699493	107.1060028	-4.928524017	4.12893678e-06	7.169765581e-08	1.0
[RightUpLeg]
7	-82.07800293	-67.51699829	-15.99599934	-22.9854908	-3.767914295	2.139027596	1.0
8	-82.07800293	-67.51699829	-15.99599934	-34.01360703	-1.761250138	1.653527498	1.0
9	-82.07800293	-67.51699829	-15.99599934	-46.06008911	0.1385624111	1.619460821	1.0
[RightLeg]
7	0	-443.7049866	2.861999989	22.05615997	-4.597243309	-4.616942883	1.0
8	0	-443.7049866	2.861999989	31.71819878	-3.244916677	-3.758560419	1.0
9	0	-443.7049866	2.861999989	42.42422104	-2.578607798	-2.737970829	1.0
[RightFoot]
7	0	-444.2770081	-29.83799934	-6.266419888	0.2633490264	4.43670702	1.0
8	0	-444.2770081	-29.83799934	-9.289841652	0.3909595311	4.241942406	1.0
9	0	-444.2770081	-29.83799934	-12.59928322	0.4524087012	3.91876173	1.0
[RightToeBase]
7	0	-87.28699493	107.1060028	-7.395303249	4.606729817e-06	-4.974982062e-07	1.0
8	0	-87.28699493	107.1060028	-7.408360004	-3.028855645e-06	8.165724807e-07	1.0
9	0	-87.28699493	107.1060028	-7.411352634	-1.578042202e-06	-1.606997444e-06	1.0
[EndOfFile]
